<svg width="15" height="21" viewBox="0 0 15 21" fill="none" xmlns="http://www.w3.org/2000/svg">
<path d="M7.29167 0.166748C3.26042 0.166748 0 3.42717 0 7.45842C0 12.9272 7.29167 21.0001 7.29167 21.0001C7.29167 21.0001 14.5833 12.9272 14.5833 7.45842C14.5833 3.42717 11.3229 0.166748 7.29167 0.166748ZM7.29167 10.0626C6.601 10.0626 5.93862 9.78822 5.45024 9.29984C4.96187 8.81146 4.6875 8.14908 4.6875 7.45842C4.6875 6.76775 4.96187 6.10537 5.45024 5.61699C5.93862 5.12862 6.601 4.85425 7.29167 4.85425C7.98234 4.85425 8.64472 5.12862 9.13309 5.61699C9.62147 6.10537 9.89583 6.76775 9.89583 7.45842C9.89583 8.14908 9.62147 8.81146 9.13309 9.29984C8.64472 9.78822 7.98234 10.0626 7.29167 10.0626Z" fill="#F8F9FE"/>
</svg>
